<?xml version="1.0" standalone="no"?>
<!DOCTYPE svg PUBLIC "-//W3C//DTD SVG 1.1//EN" "http://www.w3.org/Graphics/SVG/1.1/DTD/svg11.dtd" >
<svg xmlns="http://www.w3.org/2000/svg">
<metadata>Generated by IcoMoon</metadata>
<defs>
<font id="icomoon" horiz-adv-x="1024">
<font-face units-per-em="1024" ascent="960" descent="-64" />
<missing-glyph horiz-adv-x="1024" />
<glyph unicode="&#x20;" horiz-adv-x="512" d="" />
<glyph unicode="&#xe900;" glyph-name="add" d="M1024 472.381h-487.619v487.619h-48.762v-487.619h-487.619v-48.762h487.619v-487.619h48.762v487.619h487.619z" />
<glyph unicode="&#xe901;" glyph-name="arrows" d="M704 832h-576v-576l64 64v448h448zM320 64h576v576l-64-64v-448h-448zM1024 960h-320l115.2-115.2-288-288 89.6-89.6 288 288 115.2-115.2zM492.8 339.2l-89.6 89.6-288-288-115.2 115.2v-320h320l-115.2 115.2z" />
<glyph unicode="&#xe902;" glyph-name="arrows-1" d="M1024 619.823v340.177h-340.175v-114.35h145.045l-316.87-316.87-316.87 316.87h145.047v114.35h-340.177v-340.177h114.35v144.89l316.793-316.79-316.793-316.79v145.045h-114.35v-340.177h340.177v114.35h-144.893l316.716 316.716 316.716-316.716h-144.89v-114.35h340.175v340.177h-114.35v-145.045l-316.79 316.79 316.79 316.79v-144.89z" />
<glyph unicode="&#xe903;" glyph-name="arrows2" d="M266.834-64c-5.544 0-11.088 2.116-15.322 6.348-8.464 8.464-8.464 22.178 0 30.642l475.010 475.010-475.008 475.010c-8.464 8.464-8.464 22.178 0 30.642s22.178 8.464 30.642 0l490.33-490.33c8.464-8.464 8.464-22.178 0-30.642l-490.33-490.332c-4.232-4.232-9.778-6.348-15.322-6.348z" />
<glyph unicode="&#xe904;" glyph-name="construction" d="M706.688 519.872v181.6l-41.024 7.904v99.84l-146.144 35.328v0.192l-0.512-0.096-0.48 0.096v-0.224l-153.28-36.736v-100.512l-41.664-7.936v-184.768l-323.584-32.288v-369.76l519.424-61.28 30.688 3.616v175.264l138.176 5.248v-164.064l335.712 39.264v376.704l-317.312 32.608zM36.064 458.112l103.136 8.64v-26.080l-103.136-7.2v24.64zM139.2 215.872l-103.136 5.44v24.672l103.136-3.968v-26.144zM139.2 269.12l-103.136 2.432v24.672l103.136-0.992v-26.112zM139.456 327.488l-103.168-0.8v24.672l103.168 2.24v-26.112zM139.456 380.768l-103.168-3.808v24.672l103.168 5.312v-26.176zM168.224 468.8l119.968 10.016v-28.256l-119.968-8.32v26.56zM288.192 207.552l-119.968 6.368v26.496l119.968-4.672v-28.192zM288.192 265.184l-119.968 2.88v26.496l119.968-1.184v-28.192zM288.544 328.256l-120.032-0.896v26.496l120.032 2.656v-28.256zM288.544 385.888l-120.032-4.448v26.56l120.032 6.080v-28.192zM344.896 664.416l144.64 24.864v-31.072l-144.64-22.816v29.024zM344.896 605.184l144.64 20.672v-31.104l-144.64-18.624v29.056zM344.576 544.96l144.608 16.448v-31.104l-144.608-14.368v29.024zM344.576 485.76l144.608 12.256v-31.104l-144.608-10.176v29.024zM489.152 199.296l-144.608 7.456v29.024l144.608-5.44v-31.040zM489.152 262.688l-144.608 3.328v29.024l144.608-1.248v-31.104zM489.568 332.192l-144.672-1.248v28.992l144.672 3.328v-31.072zM489.568 395.616l-144.672-5.472v29.056l144.672 7.456v-31.040zM549.312 687.744l138.304-23.872v-29.856l-138.304 21.856v31.872zM548.512 558.176l138.368-15.616v-29.856l-138.368 13.6v31.872zM548.864 495.168l138.368-11.584v-29.888l-138.368 9.6v31.872zM549.472 360.768l138.304-3.072v-29.856l-138.304 0.96v31.968zM687.968 264.48l-138.208-3.296v31.872l138.208 1.248v-29.824zM687.968 388l-138.208 5.088v31.84l138.208-7.136v-29.792zM687.968 575.008l-138.208 17.824v31.872l138.208-19.84v-29.856zM740 479.84l115.744-9.76v-27.36l-115.744 8.064v29.056zM856.384 409.792v-27.36l-115.616 4.352v29.024l115.616-6.016zM740.512 357.248l115.712-2.56v-27.36l-115.712 0.864v29.056zM740.672 295.488l115.68 0.992v-27.36l-115.68-2.688v29.056zM856.672 215.104l-115.648-6.080v29.056l115.648 4.416v-27.392zM889.536 467.328l99.392-8.384v-25.44l-99.392 6.912v26.912zM989.472 402.944v-25.376l-99.328 3.68v26.88l99.328-5.184zM889.984 353.984l99.328-2.208v-25.408l-99.328 0.736v26.88zM890.112 296.928l99.328 0.832v-25.408l-99.328-2.336v26.912zM989.76 222.176l-99.328-5.216v26.912l99.328 3.712v-25.408z" />
<glyph unicode="&#xe905;" glyph-name="bath" d="M853.938 489.637h-683.928c0 115.795 93.869 209.6 209.6 209.6h58.631v260.764h147.441v-260.699h58.67c115.718 0 209.587-93.805 209.587-209.664zM546.903 406.067v0.335c0 19.261-15.63 34.762-34.929 34.762-19.338 0-34.968-15.823-34.968-35.109 0-19.261 15.63-34.929 34.968-34.929 19.312 0.013 34.929 15.681 34.929 34.942zM546.903 115.666v0.734c0 19.338-15.63 34.671-34.929 34.671-19.338 0-34.968-16.003-34.968-35.405 0-19.261 15.63-34.929 34.968-34.929 19.312 0 34.929 15.668 34.929 34.929zM546.903 260.802v0.798c0 19.273-15.63 34.543-34.929 34.543-19.338 0-34.968-15.939-34.968-35.328 0-19.209 15.63-34.942 34.968-34.942 19.312 0 34.929 15.72 34.929 34.929zM546.903-29.058v0.386c0 19.273-15.63 34.8-34.929 34.8-19.338 0-34.968-15.862-34.968-35.186 0-19.338 15.63-34.942 34.968-34.942 19.312 0 34.929 15.604 34.929 34.942zM922.213-22.26c17.999 7.133 26.599 27.462 19.467 45.332l-0.27 0.747c-7.133 17.934-27.333 26.457-45.203 18.99-18.063-7.068-26.535-27.719-19.338-45.589 5.472-13.724 18.475-22.003 32.406-22.003 4.274-0.013 8.678 0.85 12.939 2.523zM874.010 109.602c17.947 7.068 26.599 27.462 19.479 45.332l-0.27 0.747c-7.197 17.934-27.462 26.586-45.267 19.055-17.986-7.133-26.535-27.796-19.261-45.666 5.394-13.673 18.527-22.003 32.406-22.003 4.249 0 8.652 0.798 12.913 2.536zM822.872 240.396c18.475 5.536 28.942 24.99 23.393 43.465l-0.193 0.669c-5.549 18.527-24.809 28.672-43.401 23.071-18.475-5.472-28.865-25.196-23.277-43.8 4.403-15.141 18.411-24.874 33.333-24.874 3.425 0 6.746 0.399 10.145 1.468zM777.605 373.34c17.934 7.068 26.599 27.462 19.467 45.306l-0.27 0.695c-7.133 17.87-27.397 26.47-45.267 19.106-17.934-7.171-26.47-27.835-19.261-45.769 5.459-13.544 18.527-21.874 32.457-21.874 4.223-0.013 8.678 0.798 12.875 2.536zM716.424-44.662c18.926 3.734 31.26 22.132 27.397 41.057l-0.142 0.669c-3.798 18.939-22.325 31.067-41.006 27.075-19.003-3.734-31.195-22.531-27.333-41.341 3.335-16.66 17.87-28.131 34.131-28.131 2.408-0.142 4.738 0.142 6.952 0.669zM691.473 93.457c19.209 1.931 33.139 19.067 31.273 38.341l-0.064 0.669c-1.88 19.132-18.939 33.139-38.199 30.861-19.209-1.867-33.204-19.325-31.273-38.534 1.802-17.986 16.995-31.453 34.723-31.453 1.146 0 2.343 0 3.541 0.116zM673.217 232.8c18.926 3.747 31.195 22.080 27.397 41.070l-0.142 0.669c-3.656 18.797-22.132 30.809-40.941 26.934-18.926-3.734-31.131-22.402-27.333-41.341 3.347-16.66 17.883-28.067 34.131-28.067 2.356 0 4.674 0.206 6.888 0.734zM651.677 371.473c18.939 3.721 31.273 22.132 27.397 41.057l-0.129 0.669c-3.811 18.9-22.544 30.964-41.019 26.998-19.003-3.669-31.131-22.363-27.32-41.328 3.399-16.608 17.934-28.080 34.118-28.080 2.42 0 4.751 0.206 6.952 0.682zM147.080-2.794l0.296 0.669c7.171 17.87-1.609 37.852-19.595 44.92-17.703 7.21-38.367-1.725-45.46-19.724-7.107-17.87 1.429-38.199 19.428-45.332 4.236-1.674 8.703-2.536 12.926-2.536 13.905 0 26.934 8.266 32.406 22.003zM195.27 129.069l0.27 0.669c7.171 17.87-1.571 37.864-19.505 44.997-17.767 7.145-38.367-1.802-45.538-19.801-7.107-17.87 1.493-38.264 19.428-45.332 4.236-1.738 8.665-2.536 12.9-2.536 13.943 0 27.050 8.33 32.444 22.003zM244.58 263.802l0.193 0.734c5.6 18.527-5.060 37.607-23.471 43.079-18.797 5.858-38.096-5.201-43.568-23.741-5.536-18.475 4.905-37.929 23.393-43.465 3.438-1.069 6.772-1.468 10.029-1.468 15.050-0.013 28.981 9.72 33.423 24.861zM291.676 392.678l0.27 0.734c7.171 17.934-1.571 37.864-19.531 45.036-17.6 7.236-38.264-1.841-45.538-19.801-7.107-17.844 1.596-38.173 19.467-45.306 4.236-1.738 8.665-2.536 12.965-2.536 13.866-0.013 26.895 8.33 32.367 21.874zM348.608-17.201l0.206 0.682c3.837 18.926-8.536 36.925-27.5 40.723-18.771 3.94-37.272-8.806-41.173-27.719-3.824-18.874 8.472-37.337 27.436-41.070 2.202-0.592 4.506-0.734 6.901-0.734 16.235-0.154 30.796 11.317 34.131 28.118zM370.739 124.794l0.064 0.682c1.957 19.196-12.102 35.933-31.337 37.852-19.132 2.279-36.268-12.398-38.238-31.53-1.931-19.196 12.064-36.319 31.26-38.341 1.172-0.129 2.369-0.129 3.528-0.129 17.728 0.013 32.856 13.415 34.723 31.466zM391.751 260.133l0.129 0.682c3.824 18.926-8.536 36.989-27.436 40.658-18.501 4.197-37.337-8.806-41.173-27.655-3.798-18.939 8.472-37.401 27.372-41.135 2.266-0.463 4.596-0.669 6.965-0.669 16.338 0.051 30.796 11.458 34.144 28.118zM413.341 398.87l0.206 0.734c3.798 18.836-8.536 36.937-27.539 40.697-18.63 3.875-37.401-8.896-41.173-27.758-3.798-18.939 8.472-37.337 27.462-41.057 2.163-0.476 4.506-0.682 6.901-0.682 16.248-0.013 30.783 11.458 34.144 28.067z" />
<glyph unicode="&#xe906;" glyph-name="building" d="M512.011 953.161v0 0 0l-512.011-441.924 51.025-59.116 65.576 56.635v-565.914h292.842v302.86h205.136v-302.861h292.838v565.905l65.567-56.64 51.016 59.122-511.989 441.935zM512.011 474.947c-62.635 0-113.412 50.777-113.412 113.406 0 62.624 50.786 113.402 113.412 113.402 62.628 0 113.393-50.778 113.393-113.402-0.002-62.618-50.766-113.406-113.393-113.406z" />
<glyph unicode="&#xe907;" glyph-name="buildings" d="M234.066 524.662v259.028c0 33.402 27.173 60.575 60.575 60.575 33.4 0 60.575-27.173 60.575-60.575h83.143c0 79.245-64.471 143.718-143.718 143.718-76.154 0-138.627-59.547-143.393-134.518h-0.325v-268.228h-150.923v-83.143h1024v83.143h-789.934zM52.363 195.108v-36.792c0-58.437 42.78-107.335 98.56-117.006v-72.719h83.143v70.947h555.868v-70.949h83.143v72.719c55.779 9.671 98.56 58.568 98.56 117.006v234.821h-919.273v-198.027z" />
<glyph unicode="&#xe908;" glyph-name="business" d="M156.641 839.157c-0.028 0-0.059 0-0.086 0-9.685 0-18.794-3.775-25.672-10.637-6.954-6.937-10.785-16.174-10.785-26.007v-549.462c0-20.149 16.456-36.581 36.688-36.633 85.292-0.203 228.191-17.98 326.771-121.143v575.028c0 6.83-1.745 13.247-5.037 18.556-80.91 130.3-236.393 150.098-321.878 150.298zM903.905 253.051v549.466c0 9.833-3.831 19.070-10.785 26.007-6.878 6.861-15.994 10.637-25.669 10.637-0.031 0-0.062 0-0.090 0-85.482-0.203-240.965-20.001-321.878-150.301-3.293-5.31-5.034-11.726-5.034-18.556v-575.024c98.58 103.162 241.479 120.939 326.771 121.143 20.228 0.052 36.685 16.484 36.685 36.63zM987.363 712.443h-26.569v-459.391c0-51.445-41.915-93.395-93.439-93.522-72.346-0.172-191.633-14.319-276.115-94.277 146.112 35.775 300.14 12.519 387.921-7.485 10.961-2.496 22.287 0.083 31.068 7.082 8.751 6.982 13.771 17.418 13.771 28.62v582.337c0.003 20.201-16.436 36.637-36.637 36.637zM63.205 253.051v459.391h-26.569c-20.197 0-36.637-16.436-36.637-36.637v-582.327c0-11.205 5.020-21.639 13.771-28.62 8.775-6.996 20.090-9.585 31.068-7.082 87.782 20.008 241.813 43.26 387.918 7.485-84.479 79.955-203.766 94.098-276.112 94.27-51.521 0.124-93.439 42.074-93.439 93.519z" />
<glyph unicode="&#xe909;" glyph-name="furniture" d="M1024 364.471c0 1.938-0.622 3.694-1.554 5.248-1.353 2.249-3.365 3.877-5.687 4.645-1.883-1.737-3.895-3.31-5.851-4.937-1.317-1.097-2.56-2.267-3.913-3.31-0.512-0.402-1.079-0.731-1.591-1.115-23.259-17.317-51.2-26.715-80.75-26.715h-825.307c-29.659 0-57.71 9.454-80.987 26.898-0.439 0.329-0.896 0.603-1.335 0.933-1.353 1.042-2.597 2.213-3.913 3.31-1.957 1.627-3.968 3.182-5.851 4.937-2.322-0.768-4.334-2.377-5.687-4.645-0.951-1.554-1.573-3.31-1.573-5.248 0-54.766 44.562-99.328 99.346-99.328h825.326c54.747 0 99.328 44.562 99.328 99.328zM914.286 228.571h-804.571v-36.571h804.571zM146.286 100.571h54.857l12.197 54.857h-67.054zM896 100.571v54.857h-67.054l12.197-54.857zM926.391 534.967c-0.366-0.11-0.75-0.219-1.134-0.329-37.102-10.88-78.976-37.413-104.43-66.249-0.073-0.091-0.146-0.183-0.219-0.274-2.432-2.779-4.736-5.577-6.839-8.375-0.768-1.024-1.39-2.048-2.121-3.054-1.353-1.92-2.743-3.84-3.931-5.742-1.829-2.981-3.474-5.943-4.864-8.905-0.713-1.518-1.225-2.816-1.591-3.913-0.073-0.219-0.091-0.366-0.165-0.567-0.677-2.194-0.768-3.438-0.75-3.95 0.018-0.091 0.073-0.146 0.091-0.238 0 0 0.018 0 0.018 0 0.366 0 5.339-3.602 22.839-3.602 10.569 0 22.949 1.335 36.059 3.602 0.128 0.018 0.256 0.037 0.384 0.073 6.327 1.097 12.837 2.432 19.383 3.931 0.549 0.128 1.097 0.256 1.627 0.384 6.199 1.445 12.416 3.017 18.578 4.736 1.006 0.274 1.975 0.585 2.962 0.859 5.23 1.481 10.386 3.054 15.433 4.681 1.262 0.402 2.523 0.805 3.767 1.207 5.376 1.792 10.587 3.639 15.561 5.522 0.713 0.274 1.463 0.53 2.176 0.805 11.447 4.425 21.541 8.978 29.129 13.33h0.018c2.615 1.518 4.974 2.999 6.729 4.37 8.759 6.857 13.605 21.815 12.032 37.23-1.28 12.672-6.839 22.894-14.464 26.679-2.45 1.207-4.809 1.938-7.003 2.194-0.475 0.055-0.805 0.055-1.243 0.091-0.384 0-0.768 0-1.17 0.037-2.816 0.238-5.778 0.238-8.795 0.146-1.17-0.037-2.359-0.11-3.566-0.201-1.993-0.146-4.023-0.347-6.089-0.622-1.957-0.274-3.95-0.585-5.961-0.951-1.262-0.238-2.523-0.494-3.785-0.768-2.834-0.603-5.723-1.298-8.667-2.139zM21.577 409.893c2.194-0.969 4.206-2.359 5.888-4.133 18.999-19.931 44.526-30.903 71.881-30.903h825.326c27.355 0 52.882 10.971 71.881 30.903 1.682 1.774 3.694 3.163 5.888 4.133-7.003 8.722-15.506 16.293-25.216 22.327-0.421-0.201-0.951-0.421-1.371-0.622-3.511-1.701-7.333-3.401-11.264-5.102-2.432-1.042-4.882-2.066-7.442-3.109-2.139-0.859-4.37-1.701-6.601-2.56-4.809-1.829-9.71-3.602-14.848-5.339-1.755-0.603-3.529-1.189-5.321-1.774-5.303-1.737-10.661-3.365-16.146-4.955-2.359-0.677-4.718-1.39-7.095-2.030-3.090-0.841-6.162-1.646-9.289-2.432-3.877-0.987-7.735-1.902-11.611-2.779-2.688-0.603-5.339-1.189-8.009-1.737-4.882-1.006-9.71-1.92-14.482-2.706-1.317-0.219-2.615-0.457-3.931-0.658-6.089-0.951-12.014-1.701-17.755-2.249-0.475-0.055-0.951-0.073-1.426-0.128-6.126-0.53-12.050-0.896-17.518-0.896-0.768 0-1.335 0.128-2.085 0.146-4.901 0.073-9.362 0.402-13.477 0.933-1.865 0.238-3.694 0.494-5.431 0.805-3.675 0.695-6.985 1.573-10.021 2.578-1.627 0.549-3.218 1.134-4.718 1.792-3.438 1.499-6.491 3.182-9.015 5.047-0.603 0.457-1.134 0.951-1.701 1.426-2.121 1.755-4.005 3.602-5.504 5.559h-518.345c-1.499-1.938-3.383-3.785-5.504-5.559-0.567-0.475-1.097-0.987-1.701-1.426-2.523-1.865-5.577-3.547-9.015-5.047-1.481-0.658-3.090-1.243-4.718-1.792-3.017-1.024-6.327-1.902-10.021-2.578-1.737-0.311-3.566-0.585-5.431-0.805-4.114-0.53-8.576-0.859-13.477-0.933-0.713-0.018-1.298-0.146-2.066-0.146-5.467 0-11.355 0.366-17.445 0.914-0.512 0.037-1.024 0.073-1.536 0.128-5.687 0.549-11.575 1.28-17.609 2.231-1.39 0.219-2.779 0.475-4.169 0.695-4.645 0.786-9.326 1.664-14.062 2.633-2.926 0.603-5.815 1.225-8.759 1.902-3.657 0.823-7.314 1.701-10.971 2.615-3.2 0.805-6.363 1.627-9.563 2.505-2.048 0.567-4.078 1.17-6.107 1.755-5.833 1.664-11.52 3.401-17.134 5.248-1.719 0.567-3.401 1.134-5.083 1.701-5.23 1.774-10.222 3.584-15.122 5.449-2.158 0.823-4.334 1.646-6.418 2.487-2.597 1.042-5.083 2.085-7.515 3.127-3.931 1.701-7.735 3.383-11.227 5.083-0.421 0.201-0.951 0.421-1.371 0.622-9.728-6.053-18.231-13.623-25.216-22.345zM55.625 468.919v0c7.607-4.352 17.701-8.923 29.147-13.349 0.695-0.274 1.445-0.53 2.158-0.805 4.974-1.883 10.167-3.73 15.543-5.504 1.262-0.421 2.56-0.823 3.84-1.243 4.992-1.609 10.112-3.163 15.305-4.645 1.042-0.293 2.066-0.603 3.109-0.896 6.107-1.701 12.27-3.255 18.395-4.699 0.622-0.146 1.225-0.293 1.847-0.439 6.491-1.481 12.946-2.798 19.237-3.895 0.165-0.037 0.347-0.055 0.512-0.091 13.074-2.249 25.435-3.584 35.986-3.584 16.366 0 21.778 3.163 22.93 3.986 0.018 0.878-0.201 3.291-2.341 7.973-0.055 0.11-0.073 0.183-0.128 0.311-1.353 2.889-2.944 5.778-4.718 8.686-0.274 0.457-0.64 0.914-0.933 1.371-1.573 2.469-3.218 4.937-5.065 7.387-0.293 0.402-0.64 0.786-0.951 1.189-1.938 2.542-3.986 5.065-6.199 7.57-0.238 0.274-0.494 0.53-0.731 0.805-2.377 2.651-4.846 5.303-7.479 7.899-0.055 0.055-0.128 0.11-0.183 0.183-14.263 14.080-32.055 27.246-50.779 37.851-0.238 0.128-0.457 0.256-0.695 0.384-3.328 1.865-6.693 3.657-10.057 5.339-0.786 0.402-1.573 0.768-2.359 1.152-2.725 1.335-5.467 2.615-8.21 3.822-1.481 0.64-2.944 1.28-4.425 1.883-1.975 0.823-3.95 1.609-5.925 2.359-2.213 0.841-4.407 1.627-6.583 2.359-1.17 0.402-2.341 0.786-3.511 1.152-2.853 0.896-5.705 1.737-8.503 2.45-0.494 0.128-0.969 0.238-1.445 0.366-6.875 1.682-13.586 2.798-19.95 3.237-0.037 0-0.055 0.018-0.091 0.018-1.938 0.128-3.931 0.347-5.797 0.347-2.395 0-4.754-0.11-7.040-0.347-3.401-0.366-5.742-1.115-8.192-2.322-7.625-3.785-13.184-14.007-14.464-26.679-1.573-15.397 3.273-30.373 12.032-37.23 1.737-1.353 4.096-2.834 6.711-4.352zM336.384 576c-10.112 0-18.286 8.192-18.286 18.286 0 30.245-24.613 54.857-54.857 54.857-62.025 0-120.649-29.403-158.592-78.171 48.402-12.818 100.992-46.83 131.675-85.358 0.53-0.658 1.061-1.317 1.573-1.975 1.664-2.139 3.255-4.297 4.773-6.455 1.152-1.646 2.231-3.291 3.291-4.937 0.987-1.536 2.011-3.054 2.907-4.59 1.993-3.346 3.822-6.711 5.413-10.075 1.481-3.127 2.542-6.071 3.438-8.905 0.073-0.238 0.201-0.475 0.274-0.695h508.032c0.073 0.238 0.201 0.475 0.274 0.713 0.878 2.779 1.938 5.65 3.365 8.722 0.037 0.055 0.037 0.128 0.073 0.183 1.719 3.675 3.749 7.333 5.925 10.971 0.695 1.152 1.481 2.286 2.213 3.438 1.591 2.487 3.237 4.955 5.029 7.424 0.987 1.353 2.011 2.688 3.054 4.041 1.737 2.249 3.547 4.48 5.431 6.693 1.17 1.371 2.322 2.743 3.547 4.096 2.011 2.231 4.114 4.443 6.254 6.619 1.207 1.243 2.377 2.487 3.621 3.712 3.090 3.017 6.29 5.979 9.6 8.887 1.134 0.987 2.304 1.957 3.456 2.944 2.871 2.432 5.76 4.827 8.759 7.15 1.609 1.243 3.255 2.432 4.901 3.657 2.414 1.792 4.827 3.547 7.296 5.266 1.774 1.225 3.566 2.432 5.358 3.621 2.487 1.646 4.992 3.237 7.515 4.809 1.792 1.097 3.566 2.213 5.376 3.273 2.816 1.664 5.669 3.237 8.539 4.809 1.536 0.841 3.054 1.719 4.608 2.523 4.389 2.286 8.795 4.443 13.221 6.455 0.805 0.366 1.609 0.658 2.414 1.024 3.712 1.646 7.442 3.2 11.154 4.626 1.591 0.622 3.182 1.152 4.791 1.719 2.926 1.061 5.851 2.066 8.777 2.981 1.792 0.567 3.566 1.079 5.339 1.573 2.725 0.768 5.431 1.463 8.119 2.103 1.847 0.439 3.675 0.878 5.504 1.243 0.695 0.146 1.39 0.347 2.085 0.475-37.998 47.141-95.561 75.41-156.379 75.41-30.245 0-54.857-24.613-54.857-54.857 0-10.094-8.174-18.286-18.286-18.286s-18.286 8.192-18.286 18.286c0 38.089 23.442 70.729 56.613 84.462-35.255 69.504-122.953 116.681-221.184 116.681s-185.929-47.177-221.202-116.681c33.189-13.733 56.631-46.373 56.631-84.462 0-10.094-8.192-18.286-18.286-18.286z" />
<glyph unicode="&#xe90a;" glyph-name="golfing" d="M150.452 913.214v-459.49c123.605 23.429 278.041 18.863 389.615-13.648v459.461c-111.565 32.556-266.014 37.084-389.615 13.678zM588.562 813.271c0-134.446 0-268.868 0-403.305 169.365-29.919 314.482 83.584 419.364 201.666-169.362-30.001-314.526 83.555-419.364 201.639zM16.074 960h76.593v-1024h-76.593v1024z" />
<glyph unicode="&#xe90b;" glyph-name="gps" d="M535.375 352.895h469.062l-57.629 98.123h-353.801zM515.813 286.279v-343.449h154.171v254.628h199.847v-254.628h154.169v343.449zM736.6 130.842h66.616v-188.012h-66.616v188.012zM369.984 688.046c-55.098 0-99.924-44.826-99.924-99.924s44.826-99.924 99.924-99.924 99.924 44.826 99.924 99.924-44.826 99.924-99.924 99.924zM554.876 517.633h179.25c3.826 21.284 5.844 43.185 5.844 65.554 0 204.009-165.975 369.982-369.984 369.982-204.013 0-369.986-165.973-369.986-369.982 0-86.445 29.802-166.053 79.668-229.107l290.316-365.006 79.215 99.593v249.034l105.677 179.931zM369.984 421.582c-91.83 0-166.539 74.71-166.539 166.539s74.71 166.539 166.539 166.539 166.539-74.71 166.539-166.539-74.71-166.539-166.539-166.539z" />
<glyph unicode="&#xe90c;" glyph-name="icon-2192" d="M763.077 743.826c39.417 0 71.086 31.598 71.086 70.873v74.285c0 39.346-31.669 71.015-71.086 71.015-39.169 0-70.944-31.669-70.944-71.015v-74.285c0-39.275 31.776-70.873 70.944-70.873zM1015.541 837.020h-143.133v-35.97c0-59.748-48.445-108.229-108.087-108.229-59.713 0-108.087 48.481-108.087 108.229v35.97h-288.433v-35.97c0-59.748-48.374-108.229-108.087-108.229-59.784 0-108.087 48.481-108.087 108.229v35.97l-144.27 1.848v-902.833l1009.285 0.213-1.102 900.772zM944.525 7.833h-865.051v576.866h865.051c0 0 0-576.866 0-576.866zM258.435 743.826c39.346 0 71.086 31.598 71.086 70.873v74.285c0 39.346-31.74 71.015-71.086 71.015-39.133 0-70.944-31.669-70.944-71.015v-74.285c0-39.275 31.811-70.873 70.944-70.873zM274.145 195.181c14.857-8.104 48.588-21.752 82.531-21.752 43.043 0 64.76 20.651 64.76 46.881 0 35.33-35.046 51.218-71.371 51.218h-33.802v59.499h32.558c27.901 0 62.84 10.912 62.84 40.91 0 21.326-17.025 37.107-52.355 37.107-28.861 0-59.357-12.582-73.646-21.361l-16.954 59.961c21.468 13.649 63.302 26.728 109.757 26.728 75.316 0 117.044-39.737 117.044-88.218 0-37.711-21.113-67.71-64.831-82.354v-1.173c42.545-7.606 76.987-39.844 76.987-86.654 0-62.165-55.128-107.98-145.087-107.98-45.886 0-84.486 11.943-105.172 24.596l16.741 62.592zM668.106 394.756h-1.031l-67.639-32.131-13.613 62.201 94.296 43.54h68.172v-354.437h-80.185z" />
<glyph unicode="&#xe90d;" glyph-name="location" d="M848.047 705.137c-3.645 13.661-11.047 28.217-16.523 40.961-65.523 157.469-208.691 213.902-324.291 213.902-154.752 0-325.193-103.768-347.949-317.658v-43.699c0-1.824 0.629-18.206 1.521-26.4 12.756-101.935 93.19-210.269 153.262-312.204 64.628-109.213 131.69-216.647 198.13-324.036 40.968 70.080 81.789 141.082 121.824 209.348 10.911 20.034 23.577 40.056 34.5 59.179 7.28 12.732 21.189 25.465 27.543 37.311 64.626 118.322 168.649 237.557 168.649 354.981v48.239c0.002 12.73-15.777 57.331-16.665 60.076zM510.067 485.768c-45.489 0-95.281 22.746-119.857 85.562-3.662 9.999-3.366 30.038-3.366 31.874v28.217c0 80.079 67.995 116.496 127.147 116.496 72.823 0 129.145-58.262 129.145-131.085 0-72.82-60.245-131.063-133.068-131.063z" />
<glyph unicode="&#xe90e;" glyph-name="lock" d="M849.692 546.466h-19.953v93.384c0 172.722-137.066 317.006-308.383 320.086-4.681 0.084-14.035 0.084-18.714 0-171.321-3.080-308.385-147.364-308.385-320.086v-93.384h-19.955c-30.749 0-55.831-31.73-55.831-70.918v-468.378c0-39.144 25.082-71.17 55.833-71.17h675.386c30.749 0 55.833 32.026 55.833 71.17v468.378c0 39.186-25.082 70.918-55.833 70.918zM575.274 241.835v-141.526c0-16.206-13.568-29.921-29.786-29.921h-66.973c-16.22 0-29.788 13.715-29.788 29.921v141.526c-15.73 15.484-24.888 36.895-24.888 60.58 0 44.883 34.694 83.45 78.807 85.232 4.675 0.189 14.039 0.189 18.714 0 44.113-1.782 78.807-40.349 78.807-85.232-0.004-23.685-9.162-45.095-24.892-60.58zM698.229 546.466h-372.459v93.384c0 102.887 83.614 187.96 186.228 187.96s186.233-85.072 186.233-187.96v-93.384z" />
<glyph unicode="&#xe90f;" glyph-name="medical" d="M972.281 669.645h-240.853v164.017c0 29.257-22.462 53.195-51.719 53.195h-328.035c-29.257 0-54.671-23.938-54.671-53.195v-164.017h-242.333c-29.381 0-54.671-23.818-54.671-53.195v-554.113c0-29.377 25.29-53.195 54.671-53.195h917.61c29.381 0 51.719 23.818 51.719 53.195v554.113c0 29.377-22.337 53.195-51.719 53.195zM367.931 815.931h292.571v-146.286h-292.571v146.286zM695.965 266.251h-110.823v-110.823h-146.286v110.823h-110.823v146.286h110.823v110.823h146.286v-110.823h110.823v-146.286z" />
<glyph unicode="&#xe910;" glyph-name="paint" d="M1013.886 561.572c13.483 13.481 13.483 35.342 0 48.826l-51.813 51.813c-11.718 11.718-30.115 13.456-43.819 4.143l-108.943-74.045 73.596 109.68c9.191 13.697 7.409 31.986-4.258 43.649l-112.391 112.391c-10.376 10.376-26.175 13.062-39.391 6.693l-19.433-9.356 9.306 20.646c5.899 13.085 3.087 28.451-7.062 38.602l-35.28 35.276c-13.481 13.481-35.342 13.481-48.826 0l-274.038-274.036 388.317-388.317 274.036 274.036zM300.508 624.824l-79.33-79.33c-6.475-6.475-10.114-15.256-10.114-24.412s3.637-17.939 10.114-24.412l75.251-75.251c14.498-14.498 21.53-34.507 19.293-54.893-2.235-20.372-13.449-38.385-30.764-49.424-221.118-140.95-241.73-161.564-248.501-168.338-48.609-48.607-48.609-127.697 0-176.309 48.658-48.658 127.753-48.561 176.309 0 6.776 6.774 27.395 27.395 168.336 248.501 11.011 17.274 29.017 28.463 49.399 30.702 20.446 2.23 40.452-4.767 54.916-19.228l75.251-75.251c13.481-13.481 35.345-13.481 48.826 0l79.332 79.332-388.317 388.312zM161.233 28.222c-19.058-19.058-49.956-19.058-69.011 0-19.058 19.058-19.058 49.956 0 69.011 19.058 19.058 49.956 19.058 69.011 0 19.058-19.056 19.058-49.953 0-69.011z" />
<glyph unicode="&#xe911;" glyph-name="paper" d="M0.090 447.883c1.253-21.095 15.247-38.848 35.506-44.905l375.111-113.411 13.785-258.568c0.627-10.234 7.519-19.215 17.335-22.557 2.715-1.044 5.639-1.462 8.354-1.462 7.31 0 14.202 2.924 19.215 8.563l132.626 146.828 187.973-130.119c8.354-5.848 18.171-8.981 28.405-8.981 23.601 0 44.069 16.709 49.082 40.101l156.018 795.128c1.88 9.19-1.671 18.797-8.772 24.645-7.31 6.057-17.126 7.519-25.899 3.968l-958.665-390.149c-19.424-8.772-31.329-27.987-30.076-49.082zM472.112 95.12l-8.563 163.119 96.075-66.417-87.512-96.702zM817.565 75.278l-342.112 236.847 479.75 464.086-137.638-700.932zM902.571 796.678l-474.32-458.864-374.694 113.202 849.013 345.662z" />
<glyph unicode="&#xe912;" glyph-name="rest" d="M1021.942 308.994l-112.718 178.454v328.275l-45.883 45.883h-702.684l-45.883-45.883v-328.272l-112.718-178.457h1019.886zM817.457 769.839v-229.054c-59.132 15.296-161.283 34.158-305.459 34.158s-246.327-18.862-305.459-34.158v229.054h610.918zM0 252.531v-91.766h106.916v-126.368h91.766v126.368h626.633v-126.368h91.766v126.368h106.918v91.766zM474.76 622.685v53.458c0 31.73-46.051 57.461-102.857 57.461s-102.854-25.731-102.854-57.461v-80.241c0 0 60.671 15.275 102.372 19.224 37.543 3.558 103.339 7.559 103.339 7.559zM754.951 595.902v80.241c0 31.73-46.051 57.461-102.857 57.461s-102.857-25.731-102.857-57.461v-53.458c0 0 65.799-3.998 103.342-7.559 41.704-3.949 102.372-19.224 102.372-19.224z" />
<glyph unicode="&#xe913;" glyph-name="restaurant" d="M261.383 216.365c-4.241-9.097-13.264-14.444-22.679-14.444-3.538 0-7.134 0.755-10.553 2.348l-110.877 51.704c-12.516 5.837-17.932 20.716-12.096 33.231 5.834 12.516 20.713 17.937 33.231 12.096l110.877-51.704c12.516-5.837 17.932-20.716 12.096-33.231zM207.821 666.659h4.874v-177.605c0-13.811 11.196-25.007 25.007-25.007s25.007 11.196 25.007 25.007v177.605h249.277c80.874 0 146.672 65.798 146.672 146.669 0 13.811-11.196 25.007-25.007 25.007s-25.007-11.196-25.007-25.007c0-53.297-43.359-96.656-96.658-96.656h-304.164c-53.297 0-96.658 43.359-96.658 96.656 0 53.299 43.362 96.658 96.658 96.658h140.823c-22.414-25.504-35.995-58.796-35.995-95.173 0-13.811 11.196-25.007 25.007-25.007s25.007 11.196 25.007 25.007c0 52.479 43.359 95.173 96.656 95.173h356.826c53.297 0 96.656-43.359 96.656-96.658 0-53.297-43.359-96.656-96.656-96.656h-121.665c-13.811 0-25.007-11.196-25.007-25.007s11.196-25.007 25.007-25.007h66.78v-177.605c0-13.811 11.196-25.007 25.007-25.007s25.007 11.196 25.007 25.007v177.605h4.874c80.874 0 146.669 65.798 146.669 146.669-0.003 80.874-65.798 146.672-146.672 146.672h-608.323c-80.874 0-146.672-65.798-146.672-146.672s65.798-146.669 146.672-146.669zM909.664 317.925c-12.638 5.571-27.4-0.163-32.966-12.803-3.819-8.67-9.355-14.744-16.459-18.055l-61.194-28.538c-7.042-3.281-15.184-3.641-24.191-1.070-13.281 3.789-27.12-3.901-30.911-17.182s3.901-27.12 17.18-30.911c8.455-2.413 16.872-3.616 25.104-3.616 11.856 0 23.326 2.493 33.954 7.45l61.191 28.538c18.155 8.462 32.364 23.406 41.094 43.219 5.571 12.641-0.16 27.402-12.801 32.969zM278.787 312.864l-110.877 51.701c-12.521 5.842-27.397 0.42-33.231-12.096-5.837-12.516-0.42-27.395 12.096-33.231l110.877-51.701c3.418-1.595 7.014-2.348 10.553-2.348 9.418 0 18.437 5.346 22.679 14.444 5.837 12.516 0.42 27.395-12.096 33.231zM993.909 253.588c-11.878-32.639-35.66-58.648-66.96-73.245l-89.146-41.569c-31.296-14.596-66.505-16.094-99.144-4.211-24.617 8.96-45.462 24.689-60.486 45.312l-98.391-45.88 322.362-150.318c12.516-5.837 17.932-20.716 12.096-33.231-4.241-9.097-13.264-14.444-22.679-14.444-3.541 0-7.134 0.755-10.553 2.348l-360.397 168.055-358.966-167.39c-12.513-5.842-27.395-0.423-33.231 12.096-5.837 12.516-0.42 27.395 12.096 33.231l320.931 149.653-96.959 45.212c-15.022-20.623-35.87-36.355-60.489-45.315-32.636-11.876-67.848-10.383-99.147 4.214l-140.545 65.538c-36.482 17.015-52.324 60.539-35.312 97.024l47.935 102.798c8.22 17.627 22.856 31.013 41.216 37.698 18.36 6.682 38.183 5.837 55.805-2.383l140.543-65.538c31.301-14.594 55.080-40.606 66.958-73.242 8.96-24.617 10.31-50.699 4.169-75.463l134.994-62.949 136.429 63.617c-14.594 58.958 14.046 122.093 71.119 148.707l89.141 41.571c64.832 30.223 142.166 2.081 172.394-62.744 14.601-31.303 16.097-66.515 4.219-99.152zM334.45 282.893c-7.309 20.083-21.903 36.072-41.096 45.020l-140.545 65.538c-5.521 2.571-11.758 2.831-17.562 0.713-5.807-2.113-10.42-6.317-12.996-11.836l-47.935-102.798c-5.359-11.493-0.37-25.204 11.12-30.561l140.545-65.538c19.193-8.947 40.821-9.85 60.906-2.543 20.083 7.309 36.070 21.903 45.020 41.096 8.95 19.195 9.853 40.826 2.543 60.909zM944.369 331.601c-18.575 39.833-66.090 57.133-105.928 38.553l-89.141-41.569c-38.723-18.057-56.145-63.472-40.021-102.585 0.663-1.005 2.741-5.461 3.086-6.614 9.19-17.577 24.479-30.936 43.402-37.823 20.085-7.309 41.714-6.407 60.901 2.543l89.149 41.571c19.193 8.95 33.789 24.937 41.099 45.020 7.307 20.078 6.404 41.709-2.546 60.904z" />
<glyph unicode="&#xe914;" glyph-name="signs" d="M515.338 735.59c-72.166 0-130.906-58.739-130.906-130.906s58.739-130.906 130.906-130.906 130.906 58.739 130.906 130.906-58.739 130.906-130.906 130.906zM515.338 511.181c-51.558 0-93.504 41.946-93.504 93.504s41.946 93.504 93.504 93.504 93.504-41.946 93.504-93.504-41.946-93.504-93.504-93.504zM765.611 854.958c-67.734 67.734-157.797 105.042-253.583 105.042-95.804 0-185.849-37.308-253.583-105.042-125.351-125.333-140.929-361.15-33.736-504.024l287.319-414.933 286.889 414.354c107.623 143.454 92.045 379.271-33.306 504.604zM768.584 372.215l-256.556-370.5-256.968 371.080c-97.225 129.634-83.293 342.599 29.846 455.72 60.665 60.665 141.322 94.084 227.121 94.084s166.456-33.418 227.14-94.084c113.14-113.121 127.072-326.086 29.416-456.3z" />
<glyph unicode="&#xe915;" glyph-name="sleeping" d="M942 300v-164h82v246h-942v336c0 10.672-4 20.338-12 29-8 8.666-17.666 13-29 13s-21-4.334-29-13-12-18.334-12-29v-582h82v164h860zM211 550c20.666 0 38.666 7.334 54 22 15.334 14.668 23 32.336 23 53 0 20.67-7.666 38.336-23 53-15.334 14.666-33.334 22-54 22s-38.334-7.334-53-22-22-32.334-22-53 7.334-38.334 22-53c14.666-14.666 32.334-22 53-22zM1024 444v100c0 16-5.666 29-17 39-11.34 10-25.674 16.334-43 19l-598 58c-10.666 0-19.666-3.666-27-11s-11-16.334-11-27v-116h-152c-25.334 0-38-10.334-38-31s12.666-31 38-31h848z" />
<glyph unicode="&#xe916;" glyph-name="technology" d="M661.297 943.882c-6.128 10.012-17.024 16.118-28.766 16.118h-241.060c-11.74 0-22.636-6.106-28.766-16.118l-158.888-259.593h616.367l-158.886 259.593zM670.021 57.918c37.926 60.268 58.812 139.716 58.812 223.71 0 51.412-7.88 101.076-22.654 145.716h-388.357c-14.776-44.642-22.654-94.306-22.654-145.716 0-83.994 20.888-163.442 58.812-223.71 13.584-21.586 28.842-39.938 45.376-54.854-16.328-2.352-28.89-16.36-28.89-33.338 0-18.626 15.1-33.726 33.726-33.726h215.612c18.626 0 33.726 15.1 33.726 33.726 0 16.98-12.56 30.988-28.886 33.338 16.534 14.918 31.792 33.268 45.376 54.854zM905.632 544.685l-44.16 72.152h-698.939l-44.162-72.152c-6.37-10.408-6.622-23.446-0.656-34.094 5.964-10.646 17.218-17.238 29.42-17.238h33.62v-212.148c0-18.626 15.1-33.726 33.726-33.726s33.726 15.1 33.726 33.726v212.146h628.661c12.204 0 23.454 6.592 29.42 17.238 5.964 10.65 5.712 23.688-0.656 34.096z" />
<glyph unicode="&#xe917;" glyph-name="transport" d="M800.124 363.763c-4.432 0-8.993-0.638-13.559-1.897l-17.174-4.732-25.302 61.632c-14.184 34.551-56.112 62.66-93.466 62.66h-277.701c-37.35 0-79.282-28.113-93.462-62.664l-25.257-61.519-16.764 4.618c-4.566 1.259-9.127 1.897-13.559 1.897-22.28 0-38.455-15.984-38.455-38.004 0-21.74 15.866-40.043 37.37-45.539-11.792-32.565-20.956-81.378-20.956-113.447v-131.149c0-27.999 22.776-50.775 50.775-50.775h18.616c27.999 0 50.775 22.776 50.775 50.775v24.534h379.531v-24.534c0-27.999 22.776-50.775 50.775-50.775h18.624c27.999 0 50.775 22.776 50.775 50.775v131.149c0 32.037-9.148 80.785-20.919 113.349 21.715 5.362 37.789 23.763 37.789 45.636-0.004 22.024-16.175 38.008-38.455 38.008zM285.768 312.586l41.274 100.55c8.485 20.667 33.706 37.577 56.047 37.577h257.379c22.341 0 47.562-16.91 56.047-37.577l41.274-100.55c8.485-20.667-2.852-37.577-25.192-37.577h-401.636c-22.341 0-33.678 16.91-25.192 37.577zM395.198 149.087c0-11.17-9.139-20.31-20.31-20.31h-84.237c-11.17 0-20.31 9.139-20.31 20.31v33.597c0 11.17 9.139 20.31 20.31 20.31h84.237c11.17 0 20.31-9.139 20.31-20.31v-33.597zM752.29 149.087c0-11.17-9.139-20.31-20.31-20.31h-84.229c-11.17 0-20.31 9.139-20.31 20.31v33.597c0 11.17 9.139 20.31 20.31 20.31h84.229c11.17 0 20.31-9.139 20.31-20.31v-33.597zM1001.46 669.414l-466.802 273.627c-6.195 3.631-14.241 5.63-22.658 5.63s-16.463-1.998-22.658-5.63l-466.802-273.627c-12.848-7.531-22.54-24.445-22.54-39.34v-652.28c0-16.796 13.664-30.465 30.465-30.465h52.448c16.8 0 30.465 13.669 30.465 30.465v551.974c0 5.597 4.553 10.155 10.155 10.155h776.926c5.601 0 10.155-4.558 10.155-10.155v-551.974c0-16.796 13.664-30.465 30.465-30.465h52.452c16.8 0 30.465 13.669 30.465 30.465v652.28c0.004 14.895-9.688 31.809-22.536 39.34z" />
<glyph unicode="&#xe918;" glyph-name="construction-1" d="M70.606-64h122.811c7.139 0 13.985 2.838 19.031 7.888l141.244 141.287 141.244-141.287c5.049-5.051 11.893-7.888 19.034-7.888h122.809c8.282 0 16.101 3.813 21.202 10.336 5.1 6.525 6.913 15.036 4.915 23.072l-88.057 354.046c-0.161 0.803-0.36 1.602-0.592 2.385l-92.546 372.089 345.63 11.574c0-0.058-0.009-0.114-0.009-0.172v-236.572h-72.255c-14.861 0-26.911-12.050-26.911-26.911v-198.326c0-14.861 12.050-26.911 26.911-26.911h198.328c14.859 0 26.911 12.050 26.911 26.911v198.326c0 14.861-12.052 26.911-26.911 26.911h-72.255v236.574c0 0.665-0.050 1.318-0.099 1.972l48.405 1.621c14.502 0.487 26.011 12.383 26.011 26.896v78.871c0 14.513-11.509 26.412-26.011 26.896l-488.545 16.36-19.309 77.635c-2.984 11.996-13.755 20.416-26.114 20.416h-83.569c-12.362 0-23.131-8.42-26.114-20.416l-17.869-71.844-184.642 6.183c-7.29 0.217-14.364-2.48-19.608-7.552-5.244-5.070-8.205-12.052-8.205-19.344v-135.543c0-7.294 2.96-14.274 8.205-19.344 5.242-5.070 12.332-7.789 19.608-7.552l140.258 4.698-90.223-362.718c-0.405-1.238-0.717-2.497-0.937-3.772l-87.894-353.387c-1.998-8.035-0.185-16.547 4.913-23.068 5.102-6.525 12.922-10.34 21.204-10.34zM781.975 380.883l106.445-106.449h-106.445v106.449zM926.481 312.488l-106.445 106.447h106.447l-0.002-106.447zM602.358-10.178h-77.235l-133.763 133.802 141.141 147.068 69.857-280.87zM374.438 906.178l10.536-42.356-62.048 2.078 10.020 40.278h41.493zM109.289 819.201l178.59-5.981c0.002 0 0.004 0 0.006 0l613.749-20.551v-26.823l-668.43-22.384c0 0-0.002 0-0.004 0l-123.914-4.151v79.889h0.002zM279.464 691.159l147.229 4.93 90.453-363.667-163.453-170.317-163.453 170.319 89.224 358.735zM174.887 270.692l141.139-147.068-133.759-133.802h-77.239l69.859 280.87z" />
<glyph unicode="&#xe919;" glyph-name="group-of-people-in-a-formation" d="M928.801 592.209c-32.058 0-58.091-26.021-58.091-57.972 0-31.975 26.033-57.96 58.091-57.96 31.951 0 57.96 25.997 57.96 57.96 0 31.951-26.021 57.972-57.96 57.972zM95.33 592.209c-32.058 0-58.091-26.021-58.091-57.972 0-31.975 26.033-57.96 58.091-57.96 31.975 0 57.996 25.997 57.996 57.96 0 31.951-26.021 57.972-57.996 57.972zM756.255 697.65c-47.599 0-86.208-38.704-86.208-86.339 0-47.54 38.608-86.172 86.208-86.172 47.611 0 86.339 38.632 86.339 86.172 0 47.587-38.727 86.339-86.339 86.339zM1024.012 172.973h-98.295v180.918c0 31.082-9.134 59.937-23.806 85.1 8.646 2.525 17.518 4.323 26.89 4.323 52.411 0 95.211-42.8 95.211-95.342v-174.999zM267.745 697.65c-47.635 0-86.339-38.704-86.339-86.339 0-47.54 38.704-86.172 86.339-86.172 47.48 0 86.184 38.632 86.184 86.172 0 47.587-38.692 86.339-86.184 86.339zM95.33 443.314c9.372 0 18.125-1.786 26.795-4.323-14.826-25.163-23.806-54.018-23.806-85.1v-180.918h-98.319v174.999c0 52.553 42.824 95.342 95.33 95.342zM511.911 870.029c-70.262 0-127.543-57.222-127.543-127.555 0-70.321 57.222-127.614 127.543-127.614 70.333 0 127.626 57.293 127.626 127.614 0.060 70.345-57.293 127.555-127.626 127.555zM894.147 105.641h-150.586v275.271c0 37.858-9.991 73.072-26.14 104.642 12.326 3.644 25.282 6.228 38.846 6.228 75.978 0 137.88-61.783 137.88-137.892v-248.25zM280.297 380.912v-275.271h-150.396v248.25c0 76.038 61.818 137.892 137.916 137.892 13.564 0 26.39-2.584 38.692-6.228-16.16-31.57-26.211-66.784-26.211-104.642zM311.867 25.959h400.111v354.953c0 110.323-89.78 200.044-200.079 200.044-110.382 0-200.032-89.721-200.032-200.044v-354.953z" />
<glyph unicode="&#xe91a;" glyph-name="home" d="M512.001 690.953l-365.205-301.073c0-0.425-0.107-1.050-0.32-1.902-0.209-0.845-0.32-1.459-0.32-1.895v-304.868c0-11.008 4.024-20.547 12.071-28.58 8.044-8.038 17.57-12.082 28.58-12.082h243.888v243.902h162.615v-243.911h243.886c11.008 0 20.547 4.036 28.58 12.091 8.047 8.024 12.084 17.57 12.084 28.58v304.868c0 1.691-0.231 2.968-0.641 3.797l-365.219 301.073zM1016.937 458.479l-139.090 115.597v259.143c0 5.924-1.904 10.796-5.726 14.609-3.791 3.809-8.663 5.713-14.6 5.713h-121.946c-5.931 0-10.801-1.904-14.616-5.713-3.806-3.813-5.708-8.687-5.708-14.609v-123.853l-154.974 129.575c-13.535 11.010-29.628 16.514-48.262 16.514-18.631 0-34.722-5.504-48.27-16.514l-456.687-380.462c-4.234-3.381-6.554-7.933-6.985-13.65-0.429-5.713 1.050-10.703 4.443-14.934l39.379-47.002c3.393-3.809 7.833-6.138 13.339-6.99 5.083-0.427 10.167 1.059 15.25 4.445l439.52 366.493 439.524-366.491c3.395-2.954 7.833-4.429 13.339-4.429h1.909c5.497 0.836 9.929 3.181 13.339 6.981l39.383 46.996c3.386 4.24 4.87 9.221 4.429 14.941-0.434 5.702-2.763 10.253-6.988 13.642z" />
<glyph unicode="&#xe91b;" glyph-name="interface" d="M772.852 290.561l-147.333 58.748-34.506 29.066c-9.115 7.703-22.573 7.136-31.019-1.273l-47.966-47.696-48.105 47.72c-8.459 8.386-21.897 8.929-31.004 1.249l-34.499-29.066-147.344-58.758c-47.442-18.892-47.403-186.907-51.476-202.329h624.802c-4.065 15.385-4.086 183.465-51.549 202.339zM343.283 529.789l27.669 0.071c17.092-89.3 77.746-140.103 141.050-140.103s100.084 30.084 124.478 85.55c-18.626-14.607-45.685-27.968-83.546-30.726-3.478-5.183-9.391-8.595-16.096-8.595h-17.691c-10.703 0-19.381 8.677-19.381 19.384 0 10.705 8.679 19.381 19.381 19.381h17.691c6.27 0 11.826-2.989 15.37-7.607 60.861 4.886 89.482 41.796 100.895 62.637l27.624 0.009c16.913 0 30.621 13.719 30.621 30.627v69.418c0 10.839-5.654 20.346-14.147 25.791-10.234 85.447-89.377 152.153-185.196 152.153s-174.962-66.706-185.193-152.153c-8.501-5.444-14.149-14.949-14.149-25.791v-69.416c-0.009-16.911 13.704-30.63 30.619-30.63zM512 773.065c75.414 0 138.137-49.735 149.701-114.618-3.611-1.373-6.893-3.399-9.699-5.949-18.062 57.019-70.244 90.915-139.998 90.915-69.756 0-121.971-33.873-140.051-90.87-2.798 2.529-6.058 4.542-9.648 5.904 11.558 64.883 74.281 114.618 149.695 114.618zM990.803 270.561l-94.877 37.828-22.22 18.716c-5.866 4.959-14.532 4.593-19.974-0.817l-30.886-30.711-30.974 30.724c-5.446 5.397-14.102 5.75-19.963 0.804l-10.583-8.916 19.448-7.753c41.905-16.662 54.307-93.157 60.677-170.17h182.547c-2.614 9.903-2.629 118.137-33.194 130.294zM694.472 489.028v-44.701c0-10.891 8.829-19.724 19.724-19.724l17.813 0.045c11.008-57.5 50.062-90.216 90.825-90.216 40.767 0 64.447 19.375 80.155 55.085-11.988-9.404-29.421-18.008-53.793-19.784-2.24-3.341-6.045-5.536-10.369-5.536h-11.387c-6.893 0-12.48 5.586-12.48 12.48s5.588 12.48 12.48 12.48h11.387c4.039 0 7.618-1.923 9.898-4.897 39.184 3.147 57.62 26.916 64.969 40.333l17.781 0.006c10.893 0 19.722 8.833 19.722 19.724v44.699c0 6.98-3.635 13.101-9.113 16.607-6.587 55.023-57.548 97.977-119.252 97.977-61.7 0-112.663-42.954-119.252-97.977-5.472-3.502-9.109-9.624-9.109-16.603zM822.835 581.257c48.561 0 88.951-32.026 96.398-73.806-2.325-0.886-4.437-2.191-6.247-3.834-11.633 36.718-45.236 58.544-90.154 58.544s-78.54-21.812-90.177-58.514c-1.808 1.628-3.902 2.924-6.212 3.801 7.44 41.784 47.829 73.808 96.392 73.808zM243.16 310.428l19.465 7.761-10.583 8.914c-5.866 4.959-14.532 4.595-19.974-0.817l-30.886-30.711-30.976 30.722c-5.446 5.399-14.102 5.75-19.963 0.804l-22.218-18.716-94.877-37.837c-30.548-12.164-30.527-120.355-33.147-130.281h182.537c6.354 76.991 18.725 153.477 60.624 170.161zM92.522 424.605l17.816 0.045c11.008-57.505 50.064-90.22 90.828-90.22s64.447 19.375 80.153 55.090c-11.993-9.404-29.421-18.008-53.795-19.788-2.24-3.339-6.045-5.532-10.367-5.532h-11.389c-6.893 0-12.478 5.583-12.478 12.48 0 6.89 5.586 12.48 12.478 12.48h11.389c4.037 0 7.616-1.925 9.896-4.901 39.191 3.147 57.622 26.916 64.971 40.333l17.786 0.006c10.891 0 19.719 8.833 19.719 19.722v44.701c0 6.98-3.637 13.101-9.111 16.607-6.589 55.023-57.552 97.977-119.252 97.977-61.702 0-112.665-42.954-119.252-97.977-5.476-3.506-9.113-9.627-9.113-16.607v-44.699c0-10.887 8.829-19.717 19.722-19.717zM201.165 581.257c48.561 0 88.949-32.026 96.396-73.806-2.327-0.886-4.437-2.191-6.247-3.834-11.631 36.718-45.232 58.544-90.149 58.544-44.92 0-78.54-21.812-90.184-58.514-1.801 1.628-3.9 2.924-6.21 3.801 7.442 41.784 47.833 73.808 96.394 73.808z" />
<glyph unicode="&#xe91c;" glyph-name="left-arrow" d="M761.939-64l-527.183 512.016 527.183 511.984 27.312-28.105-498.191-483.879 498.191-483.89z" />
<glyph unicode="&#xe91d;" glyph-name="material" d="M353.123 177.727c0 70.698-57.292 128-128 128-70.698 0-128-57.302-128-128 0-70.708 57.302-128 128-128 70.708 0 128 57.292 128 128zM182.857 177.727c0 23.333 18.923 42.266 42.266 42.266s42.308-18.934 42.308-42.266c0-23.364-18.934-42.297-42.308-42.297-23.343-0.021-42.266 18.892-42.266 42.297zM658.286 608.559v-261.151c0 0 7.001 1.735 42.266 1.735 78.608 0 118.491-38.619 137.613-68.451 10 10.418 23.991 17 39.549 17h128v192.010l-77.72 118.857h-269.709zM950.857 407.406h-146.286v146.286h109.714l36.571-58.295v-87.991zM53.708 425.691c0 0 301.714-55.965 341.723-201.143h138.261c0 0 17.168 91.429 88.022 116.558v304.024h321.714l53.144 73.143h-411.429l-50.28-109.714h-534.862v-73.143h54.857l-1.149-109.725zM877.714 261.12c-8.505 0-15.391-5.977-17.387-13.876-0.366-1.463-0.899-2.842-0.899-4.409v-36.571c0-10.094 8.182-18.286 18.286-18.286h128c10.083 0 18.286 8.192 18.286 18.286v36.571c0 10.083-8.202 18.286-18.286 18.286h-128zM828.552 177.727c0 1.735-0.188 3.396-0.24 5.11-0.449 11.368-2.226 22.382-5.444 32.789-16.165 52.182-64.773 90.102-122.284 90.102-70.708 0-128-57.302-128-128 0-70.708 57.292-128 128-128s127.969 57.292 127.969 128zM658.286 177.727c0 23.333 18.923 42.266 42.266 42.266 23.364 0 42.308-18.934 42.308-42.266 0-23.364-18.923-42.297-42.308-42.297-23.343-0.021-42.266 18.892-42.266 42.297zM542.49 727.019l-19.059 46.111h-54.857l-48.003 73.143h-70.855l-75.431-91.429h-57.919l-51.796-54.857h-39.633l-60.938-54.857h438.857z" />
<glyph unicode="&#xe91e;" glyph-name="pointer-advice" d="M468.035 506.487h-303.759c-12.195 0-22.922-8.063-26.303-19.782l-58.288-201.825 408.68-44.716 32.070 153.487c-19.96 35.64-38.323 73.796-52.399 112.836zM849.732 200.622l122.737-13.427-36.647 126.896c-4.923-7.245-9.821-14.303-14.645-21.088-24.795-34.914-49.573-66.253-71.444-92.381zM583.574 294.23l-13.175-63.044 66.34-7.253c-16.658 20.707-34.389 43.843-52.15 68.848-0.331 0.476-0.676 0.969-1.016 1.448zM1.076 12.676c-2.387-8.271-0.75-17.17 4.422-24.053 5.172-6.88 13.276-10.924 21.882-10.924h406.147l37.959 181.676-414.933 45.403-55.476-192.103zM997.111 101.87l-443.588 48.541-36.089-172.707h479.132c0.019 0 0.038 0 0.055 0 15.122 0 27.379 12.263 27.379 27.379 0 3.277-0.575 6.423-1.629 9.325l-25.26 87.461zM741.507 165.82c2.913-3.119 7.015-4.887 11.297-4.887 4.285 0 8.373 1.769 11.316 4.887 24.945 26.539 74.209 81.459 123.577 150.962 62.19 87.554 136.303 215.928 136.303 330.333 0 149.538-121.655 271.185-271.196 271.185-149.525 0-271.183-121.647-271.183-271.185 0-114.484 74.209-242.943 136.462-330.558 49.354-69.497 98.503-124.256 123.424-150.738zM752.804 816.261c91.31 0 165.588-74.3 165.588-165.607 0-91.272-74.28-165.607-165.588-165.607-91.294 0-165.583 74.335-165.583 165.607 0.005 91.308 74.286 165.607 165.583 165.607z" />
<glyph unicode="&#xe91f;" glyph-name="social" d="M734.992 203.506c-18.95 2.988-19.384 54.657-19.384 54.657s55.691 54.653 67.824 128.148c32.651 0 52.813 78.138 20.164 105.627 1.363 28.944 41.967 227.18-163.597 227.18s-164.959-198.236-163.599-227.178c-32.653-27.487-12.488-105.627 20.162-105.627 12.134-73.496 67.828-128.15 67.828-128.15s-0.436-51.667-19.386-54.657c-61.046-9.631-289.006-109.315-289.006-218.624h767.999c0.002 109.311-227.954 208.996-289.004 218.624zM344.052 186.070c44.095 27.153 97.626 52.308 141.538 67.425-15.752 22.433-33.293 52.936-44.329 89.063-15.406 12.566-27.944 30.53-35.998 52.6-8.066 22.105-11.123 46.85-8.607 69.684 1.803 16.393 6.478 31.667 13.649 45.087-4.351 46.585-7.413 138.034 52.449 204.731 23.213 25.866 52.556 44.459 87.698 55.686-6.275 64.763-39.158 140.772-166.452 140.772-205.565 0-164.959-198.236-163.599-227.176-32.653-27.491-12.488-105.629 20.162-105.629 12.132-73.494 67.826-128.15 67.826-128.15s-0.432-51.665-19.384-54.655c-61.046-9.633-289.004-109.319-289.004-218.628h329.594c4.71 3.076 9.506 6.14 14.458 9.189z" />
<glyph unicode="&#xe920;" glyph-name="tool" d="M981.789 538.859c14.55 21.559 10.899 64.109 11.844 88.358 1.751 44.818 0.839 90.275-6.314 134.615-4.179 25.849-18.824 41.4-38.593 50.153 19.636 16.829 32.146 44.835 31.085 68.583-2.301 51.015-51.376 84.067-99.801 78.904-72.323-7.714-86.546-109.883-40.611-143.886-13.278-2.618-25.638-5.786-36.064-8.92-11.088-3.34-13.25-13.828-9.698-21.825-3.007-0.884-5.469-3.135-6.064-7.453-0.439-3.229-0.689-6.436-1.078-9.654-56 13.756-116.113 11.516-175.37 9.709-2.595 2.234-6.102 3.251-10.037 1.812-1.517-0.556-2.907-1.523-4.385-2.223-25.922-0.711-51.621-1.106-76.62 0.267-84.784 4.657-176.982 21.409-257.142-14.428-6.825 19.658-21.27 30.201-39.36 35.848 15.545 15.651 25.766 40.172 27.589 59.068 5.13 53.238-28.384 93.771-81.572 97.917-51.793 4.041-88.030-41.461-90.959-89.347-1.473-24.015 9.198-48.364 26.866-62.381-0.206 0.011-0.428 0.006-0.634 0.022-14.395 0.8-19.491-13.3-15.484-23.86-21.231-44.579-28.895-95.072-28.328-144.163 0.328-28.267 1.762-68.372 22.42-89.908 11.377-11.86 25.382-17.296 40.322-19.886-18.252-110.867-9.304-230.198-20.419-342.827-1.406-14.256-4.079-33.925-5.48-54.855-38.91 0.195-64.793-29.395-67.994-70.011-3.99-50.604 31.507-96.294 76.286-114.852 57.106-23.665 113.673 11.032 144.608 58.207 29.562 45.068 22.681 118.498-40.216 128.774-1.162 0.189-2.206 0.022-3.301-0.011 0.823 16.029 0.956 29.39 1.262 36.409 5.024 116.258 29.162 245.31 8.565 358.977 8.465 2.401 15.812 6.458 20.108 13.55 3.257 5.374 5.986 11.338 8.57 17.435 176.793-30.829 372.222-20.864 549.776-2.184 1.506-3.518 3.123-6.858 5.002-9.798 6.353-9.921 18.98-17.724 34.77-23.287-3.507-52.082-23.765-245.36-12.505-375.673-1.412 0.239-2.901 0.206-4.446-0.167-43.979-10.677-69.756-43.779-61.369-89.269 8.092-43.918 51.137-76.636 92.548-85.495 42.6-9.109 93.337 20.731 117.519 54.211 23.804 32.98 25.466 99.723-26.533 108.027-0.8 0.122-1.595 0.061-2.395 0.061 18.657 129.835 1.64 332.35-1.595 375.712-0.161 2.245-0.811 4.152-1.728 5.813 21.186 3.985 38.782 11.821 46.958 23.932zM164.049 922.507c34.253 1.778 54.161-23.732 54.116-55.75-0.044-30.974-16.201-45.040-43.017-52.949-4.53-1.334-7.67-4.93-9.154-9.070-0.278-0.006-0.556-0.006-0.834-0.006 0.022 4.713-3.279 9.42-9.42 10.043-31.268 3.179-46.141 19.38-44.568 51.587 1.434 29.595 22.959 54.594 52.877 56.145zM234.822 62.701c1.389-17.652-8.064-34.808-17.379-48.992-23.176-35.286-62.158-50.426-102.069-36.77-54.311 18.58-70.517 101.052-18.285 123.377 0.589-43.895 11.627-85.851 56.25-90.62 33.969-3.629 46.53 44.907 51.476 89.886 14.945-8.987 28.434-16.857 30.006-36.881zM141.057 524.331c9.343-0.572 18.785-0.661 27.972-0.917 5.285-0.15 11.849-0.484 18.802-0.545 13.355-95.21-11.999-186.947-10.065-281.802 1.245-60.98 7.636-137.944-19.93-193.967-12.555-25.521-27.378 52.832-27.439 54.894-0.611 20.019 1.239 40.216 2.623 60.163 2.723 39.26 8.137 78.348 12.516 117.442 9.093 81.205 0.806 163.46-4.48 244.732zM215.625 578.73c-5.558-23.365-13.344-20.48-36.531-20.586-18.374-0.083-71.445-4.102-74.958 22.526-8.553 64.837-7.942 124.361-2.145 189.026 0.995-0.2 1.79-0.667 2.89-0.711 46.569-1.884 130.019 26.399 129.035-43.017-0.7-49.103-6.931-99.49-18.291-147.237zM783.409 736.099c-0.506-6.936-0.528-13.906-0.811-20.853-5.052 3.235-10.082 6.414-14.439 9.721-5.308 4.035-10.237 8.565-15.401 12.833 10.221-0.428 20.436-0.973 30.651-1.701zM721.095 738.833c2.373-0.061 4.741-0.161 7.108-0.228 6.853-9.993 17.285-18.674 25.727-26.505 7.948-7.375 16.923-16.907 26.544-24.193-3.896-2.829-6.147-6.341-8.77-11.988-0.122-0.267-0.306-0.511-0.434-0.773-7.959 5.274-16.657 9.815-24.221 15.073-13.65 9.487-26.444 20.13-38.982 31.068 4.413 5.802 8.965 11.544 13.027 17.546zM730.816 680.043c8.476-7.37 17.991-16.546 28.367-23.093-3.463-4.268-7.070-8.42-10.532-12.511-0.806-0.956-1.662-1.929-2.484-2.884-1.551-0.195-3.101-0.695-4.452-1.829 1.378 1.156-9.743 5.675-11.871 6.853-6.769 3.752-13.116 8.314-19.436 12.766-10.932 7.698-21.542 15.873-32.407 23.659 7.103 8.954 14.339 17.779 21.403 26.683 10.16-10.193 20.519-20.18 31.413-29.645zM520.087 743.508c12.883-0.923 25.76-1.545 38.638-2.045-3.935-5.536-7.603-11.243-11.154-16.923-7.481 5.058-15.406 9.643-22.67 14.739-1.94 1.362-3.729 2.896-5.641 4.302 0.278-0.022 0.556-0.056 0.828-0.072zM467.527 742.913c1.045 1.728 1.59 3.429 1.823 5.069 7.825-0.761 15.501-1.345 23.265-2.056 5.936-5.791 11.599-11.86 17.802-17.385 8.020-7.142 16.79-15.451 26.138-21.987-2.407-3.968-4.746-7.775-6.992-11.271-1.323-2.051-2.69-4.041-4.029-6.080-8.47 3.685-17.251 6.892-25.238 11.688-14.422 8.665-27.372 19.641-39.894 30.868 2.334 3.752 4.841 7.381 7.125 11.154zM491.408 685.679c6.758-5.174 14.361-10.51 22.487-14.078-4.068-6.102-8.092-12.255-12.149-18.363-0.645 0.534-1.134 1.262-1.962 1.517-11.371 3.568-23.771 12.444-33.847 18.791-10.16 6.403-19.825 13.583-29.262 21.047 5.669 8.515 11.016 17.246 16.518 25.871 11.977-12.444 24.449-24.243 38.215-34.786zM355.070 756.329c-3.29-3.852-6.586-7.909-9.882-11.821-5.941 4.741-12.694 8.553-19.775 11.494 9.848 0.339 19.73 0.5 29.656 0.328zM307.357 755.068c-0.272-2.629 0.856-5.508 3.968-6.758 9.165-3.696 16.818-9.282 24.521-14.973-4.068-4.891-8.148-9.643-12.199-14.589-4.463 2.751-9.32 5.202-13.127 8.381-7.347 6.136-14.072 13.311-19.697 21.053-4.846 6.675-15.934 0.589-11.277-6.592 6.408-9.871 14.095-18.802 22.72-26.8 3.307-3.068 6.997-6.375 10.993-8.981-3.268-4.096-6.619-8.098-9.826-12.244-4.58 2.545-9.52 4.68-13.366 7.042-4.357 2.673-8.809 5.124-12.727 8.442-1.228 1.039-2.334 2.151-3.224 3.49-0.050 0.089-0.039 0.050-0.083 0.128 0.917 0.4 1.773 0.945 2.807 1.245 3.529 1.017 2.985 7.025-0.895 6.608-2.751-0.295-5.875-0.328-8.698-0.911 0.017 4.724 0.044 9.559 0.050 13.967 0.011 5.875-0.395 11.255-1.162 16.212 13.594 2.601 27.361 4.246 41.222 5.28zM266.968 696.327c5.124-5.28 11.505-9.759 17.69-13.555 2.195-1.345 4.724-2.979 7.342-4.569-10.021-13.678-19.691-27.561-28.261-41.939 2.101 20.386 2.884 40.816 3.229 60.063zM326.942 574.729c-24.827-0.072-49.637 0.245-74.397 1.395 1.478 4.935 2.701 10.082 3.896 15.251 40.055 57.618 85.334 108.933 130.169 163.049 0.178 0.217 0.2 0.456 0.367 0.678 18.224-1.084 36.448-2.729 54.605-4.463-36.481-58.373-71.579-117.342-113.223-172.319-0.889-1.178-1.273-2.39-1.417-3.59zM348.612 575.068c5.619 6.497 10.854 13.289 16.273 19.936 5.33-6.136 10.966-11.994 17.201-17.363 0.634-0.545 1.362-1.123 2.012-1.678-11.833-0.35-23.665-0.728-35.486-0.895zM414.055 576.946c-6.419 3.49-13.322 6.408-19.402 10.21-7.953 4.963-15.078 11.071-21.825 17.585 3.401 4.291 6.619 8.726 9.954 13.066 18.152-11.071 35.097-27.883 53.655-39.933-7.459-0.317-14.923-0.639-22.381-0.928zM458.167 588.49c-10.615 5.902-21.864 11.016-32.174 17.329-11.938 7.308-23.832 14.689-36.27 21.097 6.175 8.22 11.855 16.801 17.818 25.177 11.833-9.932 24.343-19.041 36.798-28.161 7.092-5.191 16.168-14.539 25.616-18.218-3.952-5.719-7.753-11.532-11.788-17.224zM455.022 635.181c-13.978 8.176-27.567 17.040-41.15 25.844 5.675 8.114 11.149 16.362 16.69 24.565 10.321-10.349 21.014-20.325 32.463-29.412 9.532-7.564 18.885-14.484 30.618-15.189-4.591-6.858-9.048-13.856-13.683-20.681-6.908 6.425-17.307 10.41-24.938 14.873zM480.015 579.858c22.776 24.638 40.983 54.055 59.452 81.549 13.039 19.408 25.933 38.866 39.71 57.762 5.474 7.509 12.144 14.289 18.535 21.225 29.017-0.506 58.023-0.528 87.046-0.845-16.607-18.307-29.373-43.217-40.216-61.964-18.23-31.496-35.803-62.67-56.273-92.576-36.042-1.439-72.14-3.351-108.255-5.152zM609.784 585.772c5.925 7.381 11.26 15.262 16.629 23.109 3.135-2.295 6.33-4.507 9.654-6.514 9.509-5.747 19.463-10.688 29.512-15.423-18.58-0.183-37.17-0.545-55.795-1.173zM706.784 587.956c-0.139-0.306-0.117-0.634-0.217-0.945-4.013 0.044-8.020-0.039-12.027-0.017 0.25 2.106-0.333 4.291-2.017 5.802-8.815 7.881-22.114 11.382-32.685 16.407-7.108 3.379-14.261 6.68-21.186 10.443-0.745 0.406-1.439 0.861-2.151 1.306-0.117 0.667-0.161 1.306-0.534 1.884 4.657 7.175 9.237 14.367 13.806 21.509 9.676-11.132 23.109-20.014 34.536-28.7 7.131-5.419 16.662-13.856 26.744-19.919-1.434-2.59-3.073-5.069-4.268-7.77zM696.179 628.1c-13.394 8.47-25.966 18.146-39.166 26.861 4.052 5.947 8.403 11.688 12.766 17.407 16.295-12.811 31.307-27.194 47.847-39.727 3.929-2.973 8.859-6.18 13.983-8.237-2.907-3.457-5.852-6.892-8.609-10.465-9.093 4.824-18.824 9.093-26.822 14.161zM730.827 586.506c0.617 0.734 1.278 1.434 1.901 2.168 1.062 0.028 2.14-0.117 3.185 0.061 4.696 0.811 6.903 6.030 5.919 10.326 10.649 12.116 21.503 24.049 32.435 36.009 2.334 2.545 5.147 5.469 8.020 8.559 0.65-17.413 1.59-39.416 5.18-59.763-18.83 1.362-37.726 2.123-56.639 2.64zM879.575 929.466c32.185 7.842 65.988-16.651 68.983-48.892 1.184-12.855-2.812-25.855-11.193-35.648-12.31-14.384-29.534-11.627-45.607-17.24-2.884-1.006-4.98-2.64-6.597-4.507-58.874 2.996-59.285 93.21-5.586 106.287zM950.698 81.986c5.263-14.589-4.58-30.779-13.394-41.628-18.391-22.648-48.553-38.36-77.809-38.093-29.362 0.272-55.884 26.399-68.294 50.615-16.629 32.43 5.747 57.423 33.958 70.517 7.359-59.14 22.798-100.652 51.815-101.28 28.417-0.611 45.902 32.88 56.273 82.683 6.614-7.008 13.978-13.161 17.451-22.815zM853.687 516.633c17.857-3.935 37.687-5.502 56.612-4.53-0.161-0.995-0.506-1.862-0.445-3.012 3.551-68.472 2.262-137.322 1.156-205.838-0.734-45.146-2.923-90.242-6.614-135.238-0.622-7.675-22.893-115.808-27.022-108.96-37.91 62.725-22.642 181.334-23.365 251.551-0.723 68.644 1.295 137.388-0.322 206.027zM952.221 565.136c-3.457-19.641-53.299-12.933-70.623-12.433-14.484 0.417-27.883 4.235-41.789 8.014-12.072 3.285-11.549 25.699-14.439 36.481-12.638 47.086-11.527 97.673-13.95 146.792 1.15 3.707 0.978 7.864-0.639 11.538-0.4 6.33-0.834 12.65-1.445 18.908-0.039 0.378-0.239 0.684-0.311 1.050 0.978 0.056 1.84-0.15 2.884 0.078 31.135 6.853 62.003 10.871 93.915 10.615 43.028-0.345 47.13-17.979 50.387-54.338 4.863-54.238 5.474-112.918-3.99-166.706z" />
<glyph unicode="&#xe921;" glyph-name="tool-1" d="M1011.36 779.424l-160.736-160.736h-168v170.624l158.752 158.688c-23.392 7.072-47.744 12-73.376 12-141.376 0-256-114.688-256-256 0-39.424 9.632-76.32 25.632-109.76l-512.64-512.48c-15.36-15.52-24.992-36.768-24.992-60.512 0-47.008 38.112-85.248 85.376-85.248 23.616 0 44.992 9.504 60.256 24.992l512.736 512.576c33.248-15.872 70.272-25.568 109.632-25.568 141.376 0 256 114.688 256 256 0 26.432-5.12 51.424-12.64 75.424z" />
<glyph unicode="&#xe922;" glyph-name="wall" d="M0 192.001h311.652v-111.303h-311.652v111.303zM356.174 192.001h311.652v-111.303h-311.652v111.303zM178.087 347.826h311.652v-111.303h-311.652v111.303zM0 503.653h311.652v-111.303h-311.652v111.303zM356.174 503.653h311.652v-111.303h-311.652v111.303zM178.087 659.478h311.652v-111.303h-311.652v111.303zM534.261 347.826h311.652v-111.303h-311.652v111.303zM534.261 659.478h311.652v-111.303h-311.652v111.303zM0 815.305h311.652v-111.303h-311.652v111.303zM356.174 815.305h311.652v-111.303h-311.652v111.303zM712.348 192.001h311.652v-111.303h-311.652v111.303zM712.348 503.653h311.652v-111.303h-311.652v111.303zM712.348 815.305h311.652v-111.303h-311.652v111.303z" />
<glyph unicode="&#xe979;" glyph-name="arrows-22" d="M1010.055 481.668l-304.726 304.726c-18.592 18.592-48.745 18.592-67.337 0-18.596-18.596-18.596-48.741 0-67.337l223.444-223.444h-813.823c-26.294 0-47.613-21.319-47.613-47.613 0-26.29 21.319-47.613 47.613-47.613h813.823l-223.436-223.444c-18.596-18.596-18.596-48.741 0-67.337 9.294-9.29 21.483-13.945 33.668-13.945s24.37 4.655 33.668 13.945l304.718 304.726c18.596 18.596 18.596 48.741 0 67.337z" />
<glyph unicode="&#xe97a;" glyph-name="arrows-3" d="M334.018 797.137c14.436 14.436 37.164 14.436 51.6 0 13.949-13.949 13.949-37.164 0-51.080l-261.641-261.641h863.38c20.126 0 36.643-15.997 36.643-36.123s-16.517-36.643-36.643-36.643h-863.38l261.641-261.153c13.949-14.436 13.949-37.684 0-51.6-14.436-14.436-37.164-14.436-51.6 0l-323.581 323.581c-13.949 13.949-13.949 37.164 0 51.080l323.581 323.581z" />
</font>
</defs>
</svg>
